<?xml version="1.0" encoding="UTF-8" standalone="no"?>
<svg width="60px" height="65px" viewBox="0 0 60 65" version="1.1" xmlns="http://www.w3.org/2000/svg" xmlns:xlink="http://www.w3.org/1999/xlink" xmlns:sketch="http://www.bohemiancoding.com/sketch/ns">
    <!-- Generator: Sketch 3.5.1 (25234) - http://www.bohemiancoding.com/sketch -->
    <title>Challenge</title>
    <desc>Created with Sketch.</desc>
    <defs></defs>
    <g id="Zendrive.com" stroke="none" stroke-width="1" fill="none" fill-rule="evenodd" sketch:type="MSPage">
        <g id="web-homepage" sketch:type="MSArtboardGroup" transform="translate(-322.000000, -634.000000)" stroke="#323232" stroke-width="1.5" stroke-linejoin="round">
            <g id="B.-Growth" sketch:type="MSLayerGroup" transform="translate(0.000000, 599.000000)">
                <g id="H.-Join-Team-+-Growth-+-JOIN-US-&gt;" transform="translate(212.000000, 36.000000)" sketch:type="MSShapeGroup">
                    <g id="Challenge" transform="translate(111.000000, 0.000000)">
                        <path d="M42.0059,8.0732 C51.4909,12.8412 57.9999,22.6602 57.9999,34.0002 C57.9999,50.0152 45.0159,63.0002 28.9999,63.0002 C12.9849,63.0002 -0.0001,50.0152 -0.0001,34.0002 C-0.0001,25.2522 3.8739,17.4082 9.9999,12.0912" id="Stroke-1"></path>
                        <path d="M1,40 L19,22 L50,53" id="Stroke-3"></path>
                        <path d="M36,38 L45,29 L57,41" id="Stroke-5"></path>
                        <path d="M34,10 L19,10 L19,0 L34,0 L34,10 Z" id="Stroke-7"></path>
                        <path d="M19,22 L19,0" id="Stroke-9"></path>
                        <path d="M42,53 C38.302,55.539 33.824,57 29,57 C18.739,57 9.962,50.279 7,41" id="Stroke-10"></path>
                        <path d="M19,27 L19,29" id="Stroke-11"></path>
                        <path d="M19,31 L19,33" id="Stroke-12"></path>
                        <path d="M19,35 L19,37" id="Stroke-13"></path>
                    </g>
                </g>
            </g>
        </g>
    </g>
</svg>