<?xml version="1.0" encoding="UTF-8" standalone="no"?>
<svg width="63px" height="65px" viewBox="0 0 63 65" version="1.1" xmlns="http://www.w3.org/2000/svg" xmlns:xlink="http://www.w3.org/1999/xlink" xmlns:sketch="http://www.bohemiancoding.com/sketch/ns">
    <!-- Generator: Sketch 3.5.1 (25234) - http://www.bohemiancoding.com/sketch -->
    <title>talktous</title>
    <desc>Created with Sketch.</desc>
    <defs></defs>
    <g id="Zendrive.com" stroke="none" stroke-width="1" fill="none" fill-rule="evenodd" sketch:type="MSPage">
        <g id="web-homepage" sketch:type="MSArtboardGroup" transform="translate(-640.000000, -634.000000)">
            <g id="B.-Growth" sketch:type="MSLayerGroup" transform="translate(0.000000, 599.000000)">
                <rect id="Rectangle-18" fill="#FFFFFF" sketch:type="MSShapeGroup" x="0" y="0" width="1024" height="264"></rect>
                <g id="H.-Join-Team-+-Growth-+-JOIN-US-&gt;" transform="translate(212.000000, 35.000000)" sketch:type="MSShapeGroup">
                    <g id="Leverage" transform="translate(428.000000, 8.000000)">
                        <g id="Page-1">
                            <g>
                                <g>
                                    <g>
                                        <g>
                                            <g>
                                                <path d="M41.5303,9.25 L21.5303,9.25 L8.5303,22.25 L8.5303,23.25 L12.5303,27.25 L12.5303,30.25 L30.5303,48.25 C30.5303,48.25 31.5303,49.25 32.5303,49.25 C34.1863,49.25 35.5303,47.906 35.5303,46.25 C35.5303,45.25 34.5303,44.25 34.5303,44.25 L36.5303,46.25 C36.5303,46.25 37.5303,47.25 38.5303,47.25 C40.1863,47.25 41.5303,45.906 41.5303,44.25 C41.5303,43.25 40.5303,42.25 40.5303,42.25 L41.5303,43.25 C41.5303,43.25 42.5303,44.25 43.5303,44.25 C45.1863,44.25 46.5303,42.906 46.5303,41.25 C46.5303,40.25 45.5303,39.25 45.5303,39.25 L43.5303,37.25 C43.5303,37.25 44.5303,38.25 45.5303,38.25 C47.1863,38.25 48.5303,36.906 48.5303,35.25 C48.5303,34.25 47.5303,33.25 47.5303,33.25 L46.5303,32.25 L47.5303,32.25 L51.5303,28.25 L51.5303,26.25 L54.5303,23.25 L54.5303,22.25 L41.5303,9.25 Z" id="Fill-1" fill="#FFFFFF"></path>
                                                <path d="M17.5303,36.25 C17.5303,36.25 16.5303,37.25 15.5303,37.25 C13.8743,37.25 12.5303,35.906 12.5303,34.25 C12.5303,33.25 13.5303,32.25 13.5303,32.25 L17.5303,36.25 Z" id="Fill-3" fill="#FFFFFF"></path>
                                                <path d="M21.5303,40.25 C21.5303,40.25 20.5303,41.25 19.5303,41.25 C17.8743,41.25 16.5303,39.906 16.5303,38.25 C16.5303,37.25 17.5303,36.25 17.5303,36.25 L21.5303,40.25 Z" id="Fill-5" fill="#FFFFFF"></path>
                                                <path d="M25.5303,44.25 C25.5303,44.25 24.5303,45.25 23.5303,45.25 C21.8743,45.25 20.5303,43.906 20.5303,42.25 C20.5303,41.25 21.5303,40.25 21.5303,40.25 L25.5303,44.25 Z" id="Fill-7" fill="#FFFFFF"></path>
                                                <path d="M29.5303,48.25 C29.5303,48.25 28.5303,49.25 27.5303,49.25 C25.8743,49.25 24.5303,47.906 24.5303,46.25 C24.5303,45.25 25.5303,44.25 25.5303,44.25 L29.5303,48.25 Z" id="Fill-9" fill="#FFFFFF"></path>
                                                <path d="M21.5303,9.25 L41.5303,9.25" id="Stroke-11" stroke="#4D5152" stroke-width="1.5"></path>
                                                <path d="M54.5303,23.25 L51.5303,26.25 L51.5303,28.25 L47.5303,32.25" id="Stroke-13" stroke="#4D5152" stroke-width="1.5" stroke-linecap="round"></path>
                                                <path d="M34.5303,28.25 L45.5303,39.25" id="Stroke-15" stroke="#4D5152" stroke-width="1.5" stroke-linecap="round"></path>
                                                <path d="M47.5303,33.25 C47.5303,33.25 48.5303,34.25 48.5303,35.25 C48.5303,36.906 47.1863,38.25 45.5303,38.25 C44.5303,38.25 43.5303,37.25 43.5303,37.25" id="Stroke-17" stroke="#4D5152" stroke-width="1.5" stroke-linecap="round"></path>
                                                <path d="M45.5303,39.25 C45.5303,39.25 46.5303,40.25 46.5303,41.25 C46.5303,42.906 45.1863,44.25 43.5303,44.25 C42.5303,44.25 41.5303,43.25 41.5303,43.25 L30.5303,32.25" id="Stroke-19" stroke="#4D5152" stroke-width="1.5" stroke-linecap="round"></path>
                                                <path d="M40.5303,42.25 C40.5303,42.25 41.5303,43.25 41.5303,44.25 C41.5303,45.906 40.1863,47.25 38.5303,47.25 C37.5303,47.25 36.5303,46.25 36.5303,46.25 L26.5303,36.25" id="Stroke-21" stroke="#4D5152" stroke-width="1.5" stroke-linecap="round"></path>
                                                <path d="M34.5303,44.25 C34.5303,44.25 35.5303,45.25 35.5303,46.25 C35.5303,47.906 34.1863,49.25 32.5303,49.25 C31.5303,49.25 30.5303,48.25 30.5303,48.25 L12.5303,30.25 L12.5303,27.25 L8.5303,23.25" id="Stroke-23" stroke="#4D5152" stroke-width="1.5" stroke-linecap="round"></path>
                                                <path d="M17.5303,36.25 C17.5303,36.25 16.5303,37.25 15.5303,37.25 C13.8743,37.25 12.5303,35.906 12.5303,34.25 C12.5303,33.25 13.5303,32.25 13.5303,32.25" id="Stroke-25" stroke="#4D5152" stroke-width="1.5" stroke-linecap="round"></path>
                                                <path d="M21.5303,40.25 C21.5303,40.25 20.5303,41.25 19.5303,41.25 C17.8743,41.25 16.5303,39.906 16.5303,38.25 C16.5303,37.25 17.5303,36.25 17.5303,36.25" id="Stroke-27" stroke="#4D5152" stroke-width="1.5" stroke-linecap="round"></path>
                                                <path d="M25.5303,44.25 C25.5303,44.25 24.5303,45.25 23.5303,45.25 C21.8743,45.25 20.5303,43.906 20.5303,42.25 C20.5303,41.25 21.5303,40.25 21.5303,40.25" id="Stroke-29" stroke="#4D5152" stroke-width="1.5" stroke-linecap="round"></path>
                                                <path d="M29.5303,48.25 C29.5303,48.25 28.5303,49.25 27.5303,49.25 C25.8743,49.25 24.5303,47.906 24.5303,46.25 C24.5303,45.25 25.5303,44.25 25.5303,44.25" id="Stroke-31" stroke="#4D5152" stroke-width="1.5" stroke-linecap="round"></path>
                                                <path d="M47.5303,33.25 L34.5303,20.25 L34.5303,14.25 L31.5303,14.25 L26.5303,19.25 C26.5303,19.25 25.5303,20.25 24.5303,20.25 C22.8743,20.25 21.5303,18.906 21.5303,17.25 C21.5303,16.25 22.5303,15.25 22.5303,15.25 L28.5303,9.25" id="Stroke-33" stroke="#4D5152" stroke-width="1.5" stroke-linecap="round"></path>
                                                <path d="M42.5303,19.25 C42.5303,20.906 41.1863,22.25 39.5303,22.25 L36.5303,22.25" id="Stroke-35" stroke="#4D5152" stroke-width="1.5"></path>
                                                <path d="M62.5303,18.25 L56.5303,24.25 L38.5303,6.25 L44.5303,0.25" id="Stroke-37" stroke="#4D5152" stroke-width="1.5"></path>
                                                <path d="M0.5303,18.25 L6.5303,24.25 L24.5303,6.25 L18.5303,0.25" id="Stroke-39" stroke="#4D5152" stroke-width="1.5"></path>
                                                <path d="M54.5303,16.25 L56.5303,18.25" id="Stroke-41" stroke="#4D5152" stroke-width="1.5" stroke-linecap="round"></path>
                                                <path d="M6.5303,18.25 L8.5303,16.25" id="Stroke-43" stroke="#4D5152" stroke-width="1.5" stroke-linecap="round"></path>
                                            </g>
                                        </g>
                                    </g>
                                </g>
                            </g>
                        </g>
                    </g>
                </g>
                <g id="H2.-Talk-to-Us" transform="translate(532.000000, 35.000000)" sketch:type="MSShapeGroup">
                    <g id="Learn-more-&gt;-+-With-Accident-Detect-+-Accident-Detection">
                        <g id="Group">
                            <g id="Group-2" transform="translate(108.000000, 0.000000)">
                                <g id="Leverage">
                                    <g>
                                        <g>
                                            <g>
                                                <rect id="Rectangle-350" fill="#FFFFFF" x="0" y="0" width="63" height="65"></rect>
                                                <g transform="translate(0.000000, 8.000000)" id="Page-1">
                                                    <g>
                                                        <g>
                                                            <path d="M41.5303,9.25 L21.5303,9.25 L8.5303,22.25 L8.5303,23.25 L12.5303,27.25 L12.5303,30.25 L30.5303,48.25 C30.5303,48.25 31.5303,49.25 32.5303,49.25 C34.1863,49.25 35.5303,47.906 35.5303,46.25 C35.5303,45.25 34.5303,44.25 34.5303,44.25 L36.5303,46.25 C36.5303,46.25 37.5303,47.25 38.5303,47.25 C40.1863,47.25 41.5303,45.906 41.5303,44.25 C41.5303,43.25 40.5303,42.25 40.5303,42.25 L41.5303,43.25 C41.5303,43.25 42.5303,44.25 43.5303,44.25 C45.1863,44.25 46.5303,42.906 46.5303,41.25 C46.5303,40.25 45.5303,39.25 45.5303,39.25 L43.5303,37.25 C43.5303,37.25 44.5303,38.25 45.5303,38.25 C47.1863,38.25 48.5303,36.906 48.5303,35.25 C48.5303,34.25 47.5303,33.25 47.5303,33.25 L46.5303,32.25 L47.5303,32.25 L51.5303,28.25 L51.5303,26.25 L54.5303,23.25 L54.5303,22.25 L41.5303,9.25 Z" id="Fill-1" fill="#FFFFFF"></path>
                                                            <path d="M17.5303,36.25 C17.5303,36.25 16.5303,37.25 15.5303,37.25 C13.8743,37.25 12.5303,35.906 12.5303,34.25 C12.5303,33.25 13.5303,32.25 13.5303,32.25 L17.5303,36.25 Z" id="Fill-3" fill="#FFFFFF"></path>
                                                            <path d="M21.5303,40.25 C21.5303,40.25 20.5303,41.25 19.5303,41.25 C17.8743,41.25 16.5303,39.906 16.5303,38.25 C16.5303,37.25 17.5303,36.25 17.5303,36.25 L21.5303,40.25 Z" id="Fill-5" fill="#FFFFFF"></path>
                                                            <path d="M25.5303,44.25 C25.5303,44.25 24.5303,45.25 23.5303,45.25 C21.8743,45.25 20.5303,43.906 20.5303,42.25 C20.5303,41.25 21.5303,40.25 21.5303,40.25 L25.5303,44.25 Z" id="Fill-7" fill="#FFFFFF"></path>
                                                            <path d="M29.5303,48.25 C29.5303,48.25 28.5303,49.25 27.5303,49.25 C25.8743,49.25 24.5303,47.906 24.5303,46.25 C24.5303,45.25 25.5303,44.25 25.5303,44.25 L29.5303,48.25 Z" id="Fill-9" fill="#FFFFFF"></path>
                                                            <path d="M21.5303,9.25 L41.5303,9.25" id="Stroke-11" stroke="#4D5152" stroke-width="1.5"></path>
                                                            <path d="M54.5303,23.25 L51.5303,26.25 L51.5303,28.25 L47.5303,32.25" id="Stroke-13" stroke="#4D5152" stroke-width="1.5" stroke-linecap="round"></path>
                                                            <path d="M34.5303,28.25 L45.5303,39.25" id="Stroke-15" stroke="#4D5152" stroke-width="1.5" stroke-linecap="round"></path>
                                                            <path d="M47.5303,33.25 C47.5303,33.25 48.5303,34.25 48.5303,35.25 C48.5303,36.906 47.1863,38.25 45.5303,38.25 C44.5303,38.25 43.5303,37.25 43.5303,37.25" id="Stroke-17" stroke="#4D5152" stroke-width="1.5" stroke-linecap="round"></path>
                                                            <path d="M45.5303,39.25 C45.5303,39.25 46.5303,40.25 46.5303,41.25 C46.5303,42.906 45.1863,44.25 43.5303,44.25 C42.5303,44.25 41.5303,43.25 41.5303,43.25 L30.5303,32.25" id="Stroke-19" stroke="#4D5152" stroke-width="1.5" stroke-linecap="round"></path>
                                                            <path d="M40.5303,42.25 C40.5303,42.25 41.5303,43.25 41.5303,44.25 C41.5303,45.906 40.1863,47.25 38.5303,47.25 C37.5303,47.25 36.5303,46.25 36.5303,46.25 L26.5303,36.25" id="Stroke-21" stroke="#4D5152" stroke-width="1.5" stroke-linecap="round"></path>
                                                            <path d="M34.5303,44.25 C34.5303,44.25 35.5303,45.25 35.5303,46.25 C35.5303,47.906 34.1863,49.25 32.5303,49.25 C31.5303,49.25 30.5303,48.25 30.5303,48.25 L12.5303,30.25 L12.5303,27.25 L8.5303,23.25" id="Stroke-23" stroke="#4D5152" stroke-width="1.5" stroke-linecap="round"></path>
                                                            <path d="M17.5303,36.25 C17.5303,36.25 16.5303,37.25 15.5303,37.25 C13.8743,37.25 12.5303,35.906 12.5303,34.25 C12.5303,33.25 13.5303,32.25 13.5303,32.25" id="Stroke-25" stroke="#4D5152" stroke-width="1.5" stroke-linecap="round"></path>
                                                            <path d="M21.5303,40.25 C21.5303,40.25 20.5303,41.25 19.5303,41.25 C17.8743,41.25 16.5303,39.906 16.5303,38.25 C16.5303,37.25 17.5303,36.25 17.5303,36.25" id="Stroke-27" stroke="#4D5152" stroke-width="1.5" stroke-linecap="round"></path>
                                                            <path d="M25.5303,44.25 C25.5303,44.25 24.5303,45.25 23.5303,45.25 C21.8743,45.25 20.5303,43.906 20.5303,42.25 C20.5303,41.25 21.5303,40.25 21.5303,40.25" id="Stroke-29" stroke="#4D5152" stroke-width="1.5" stroke-linecap="round"></path>
                                                            <path d="M29.5303,48.25 C29.5303,48.25 28.5303,49.25 27.5303,49.25 C25.8743,49.25 24.5303,47.906 24.5303,46.25 C24.5303,45.25 25.5303,44.25 25.5303,44.25" id="Stroke-31" stroke="#4D5152" stroke-width="1.5" stroke-linecap="round"></path>
                                                            <path d="M47.5303,33.25 L34.5303,20.25 L34.5303,14.25 L31.5303,14.25 L26.5303,19.25 C26.5303,19.25 25.5303,20.25 24.5303,20.25 C22.8743,20.25 21.5303,18.906 21.5303,17.25 C21.5303,16.25 22.5303,15.25 22.5303,15.25 L28.5303,9.25" id="Stroke-33" stroke="#4D5152" stroke-width="1.5" stroke-linecap="round"></path>
                                                            <path d="M42.5303,19.25 C42.5303,20.906 41.1863,22.25 39.5303,22.25 L36.5303,22.25" id="Stroke-35" stroke="#4D5152" stroke-width="1.5"></path>
                                                            <path d="M62.5303,18.25 L56.5303,24.25 L38.5303,6.25 L44.5303,0.25" id="Stroke-37" stroke="#4D5152" stroke-width="1.5"></path>
                                                            <path d="M0.5303,18.25 L6.5303,24.25 L24.5303,6.25 L18.5303,0.25" id="Stroke-39" stroke="#4D5152" stroke-width="1.5"></path>
                                                            <path d="M54.5303,16.25 L56.5303,18.25" id="Stroke-41" stroke="#4D5152" stroke-width="1.5" stroke-linecap="round"></path>
                                                            <path d="M6.5303,18.25 L8.5303,16.25" id="Stroke-43" stroke="#4D5152" stroke-width="1.5" stroke-linecap="round"></path>
                                                        </g>
                                                    </g>
                                                </g>
                                            </g>
                                        </g>
                                    </g>
                                </g>
                            </g>
                        </g>
                    </g>
                </g>
            </g>
        </g>
    </g>
</svg>